<?xml version="1.0" encoding="UTF-8" standalone="no"?>
<!-- Created with Inkscape (http://www.inkscape.org/) -->

<svg
   version="1.1"
   id="svg2"
   width="538.69336"
   height="199.26666"
   viewBox="0 0 538.69336 199.26666"
   sodipodi:docname="WarframeLotus_Update2014_white.eps"
   xmlns:inkscape="http://www.inkscape.org/namespaces/inkscape"
   xmlns:sodipodi="http://sodipodi.sourceforge.net/DTD/sodipodi-0.dtd"
   xmlns="http://www.w3.org/2000/svg"
   xmlns:svg="http://www.w3.org/2000/svg">
  <defs
     id="defs6">
    <clipPath
       clipPathUnits="userSpaceOnUse"
       id="clipPath34">
      <path
         d="m 1587.65,637.828 c -59.75,67.223 -115.18,244.86 -115.18,244.86 v 0 c 0,0 64.28,42.437 134.18,73.386 -9.52,28.172 -14.97,54.306 -19,76.136 -21.39,-14.17 -55.46,-30.38 -75.11,-40.116 -124.93,-61.992 -190.69,-32.055 -190.69,-32.055 0,0 5.83,-2.867 15.28,-7.547 22.7,-13.711 65.53,-54.078 97.89,-132.719 l 91.77,-194.609 c 0.37,-0.371 0.79,-0.703 1.16,-1.074 l 110.22,-22.649 c -19.97,9.934 -37.33,21.887 -50.52,36.387 z"
         id="path32" />
    </clipPath>
    <linearGradient
       x1="0"
       y1="0"
       x2="1"
       y2="0"
       gradientUnits="userSpaceOnUse"
       gradientTransform="matrix(0,1244.36,1244.36,0,1480.01,616.07)"
       spreadMethod="pad"
       id="linearGradient42">
      <stop
         style="stop-opacity:1;stop-color:#275e89"
         offset="0"
         id="stop36" />
      <stop
         style="stop-opacity:1;stop-color:#275e89"
         offset="0.28701"
         id="stop38" />
      <stop
         style="stop-opacity:1;stop-color:#142e43"
         offset="1"
         id="stop40" />
    </linearGradient>
    <clipPath
       clipPathUnits="userSpaceOnUse"
       id="clipPath52">
      <path
         d="m 1336.59,952.82 c -9.14,4.496 -14.74,7.219 -14.74,7.219 0,0 5.9,-1.965 14.74,-7.219 z"
         id="path50" />
    </clipPath>
    <linearGradient
       x1="0"
       y1="0"
       x2="1"
       y2="0"
       gradientUnits="userSpaceOnUse"
       gradientTransform="matrix(0,1244.36,1244.36,0,1329.22,616.069)"
       spreadMethod="pad"
       id="linearGradient60">
      <stop
         style="stop-opacity:1;stop-color:#275e89"
         offset="0"
         id="stop54" />
      <stop
         style="stop-opacity:1;stop-color:#275e89"
         offset="0.28701"
         id="stop56" />
      <stop
         style="stop-opacity:1;stop-color:#142e43"
         offset="1"
         id="stop58" />
    </linearGradient>
    <clipPath
       clipPathUnits="userSpaceOnUse"
       id="clipPath70">
      <path
         d="m 1687.49,683.66 c -34.42,38.715 -76.2,139.61 -76.2,139.61 0,0 19.21,11.375 46.72,24.832 -9.46,11.945 -18.15,23.906 -25.91,35.742 -70.17,-33.957 -106.75,-18.602 -106.75,-18.602 0,0 2.73,-1.25 7.12,-3.262 10.39,-6.285 31.22,-24.609 55.82,-77.417 l 49.88,-103.442 c 0.88,-0.891 1.82,-1.738 2.72,-2.598 l 71.09,-16.289 c -9.15,6.551 -17.45,13.68 -24.49,21.426 z"
         id="path68" />
    </clipPath>
    <linearGradient
       x1="0"
       y1="0"
       x2="1"
       y2="0"
       gradientUnits="userSpaceOnUse"
       gradientTransform="matrix(0,1244.36,1244.36,0,1618.67,616.07)"
       spreadMethod="pad"
       id="linearGradient78">
      <stop
         style="stop-opacity:1;stop-color:#275e89"
         offset="0"
         id="stop72" />
      <stop
         style="stop-opacity:1;stop-color:#275e89"
         offset="0.28701"
         id="stop74" />
      <stop
         style="stop-opacity:1;stop-color:#142e43"
         offset="1"
         id="stop76" />
    </linearGradient>
    <clipPath
       clipPathUnits="userSpaceOnUse"
       id="clipPath88">
      <path
         d="m 1532.15,862.18 c -4.21,1.91 -6.8,3.062 -6.8,3.062 0,0 2.48,-0.488 6.8,-3.062 z"
         id="path86" />
    </clipPath>
    <linearGradient
       x1="0"
       y1="0"
       x2="1"
       y2="0"
       gradientUnits="userSpaceOnUse"
       gradientTransform="matrix(0,1244.38,1244.38,0,1528.75,616.066)"
       spreadMethod="pad"
       id="linearGradient96">
      <stop
         style="stop-opacity:1;stop-color:#275e89"
         offset="0"
         id="stop90" />
      <stop
         style="stop-opacity:1;stop-color:#275e89"
         offset="0.28701"
         id="stop92" />
      <stop
         style="stop-opacity:1;stop-color:#142e43"
         offset="1"
         id="stop94" />
    </linearGradient>
    <clipPath
       clipPathUnits="userSpaceOnUse"
       id="clipPath106">
      <path
         d="m 2827.92,960.039 c 0,0 -65.77,-29.937 -190.69,32.055 -19.65,9.736 -53.73,25.946 -75.12,40.116 -4.02,-21.83 -9.48,-47.964 -18.99,-76.136 69.9,-30.949 134.17,-73.386 134.17,-73.386 v 0 c 0,0 -55.42,-177.637 -115.18,-244.86 -13.19,-14.5 -30.54,-26.453 -50.52,-36.387 l 110.23,22.649 c 0.37,0.371 0.78,0.703 1.15,1.074 l 91.77,194.609 c 32.36,78.641 75.19,119.008 97.9,132.719 9.44,4.68 15.28,7.547 15.28,7.547 z"
         id="path104" />
    </clipPath>
    <linearGradient
       x1="0"
       y1="0"
       x2="1"
       y2="0"
       gradientUnits="userSpaceOnUse"
       gradientTransform="matrix(0,1244.36,1244.36,0,2669.76,616.07)"
       spreadMethod="pad"
       id="linearGradient114">
      <stop
         style="stop-opacity:1;stop-color:#275e89"
         offset="0"
         id="stop108" />
      <stop
         style="stop-opacity:1;stop-color:#275e89"
         offset="0.28701"
         id="stop110" />
      <stop
         style="stop-opacity:1;stop-color:#142e43"
         offset="1"
         id="stop112" />
    </linearGradient>
    <clipPath
       clipPathUnits="userSpaceOnUse"
       id="clipPath124">
      <path
         d="m 2813.18,952.82 c 9.13,4.496 14.74,7.219 14.74,7.219 0,0 -5.91,-1.965 -14.74,-7.219 z"
         id="path122" />
    </clipPath>
    <linearGradient
       x1="0"
       y1="0"
       x2="1"
       y2="0"
       gradientUnits="userSpaceOnUse"
       gradientTransform="matrix(0,1244.36,1244.36,0,2820.55,616.069)"
       spreadMethod="pad"
       id="linearGradient132">
      <stop
         style="stop-opacity:1;stop-color:#275e89"
         offset="0"
         id="stop126" />
      <stop
         style="stop-opacity:1;stop-color:#275e89"
         offset="0.28701"
         id="stop128" />
      <stop
         style="stop-opacity:1;stop-color:#142e43"
         offset="1"
         id="stop130" />
    </linearGradient>
    <clipPath
       clipPathUnits="userSpaceOnUse"
       id="clipPath142">
      <path
         d="m 2624.41,865.242 c 0,0 -36.58,-15.355 -106.74,18.602 -7.76,-11.836 -16.46,-23.797 -25.91,-35.742 27.51,-13.457 46.72,-24.832 46.72,-24.832 0,0 -41.79,-100.895 -76.21,-139.61 -7.04,-7.746 -15.34,-14.875 -24.48,-21.426 l 71.08,16.289 c 0.91,0.86 1.84,1.707 2.72,2.598 l 49.88,103.442 c 24.61,52.808 45.43,71.132 55.83,77.417 4.38,2.012 7.11,3.262 7.11,3.262 z"
         id="path140" />
    </clipPath>
    <linearGradient
       x1="0"
       y1="0"
       x2="1"
       y2="0"
       gradientUnits="userSpaceOnUse"
       gradientTransform="matrix(0,1244.36,1244.36,0,2531.1,616.07)"
       spreadMethod="pad"
       id="linearGradient150">
      <stop
         style="stop-opacity:1;stop-color:#275e89"
         offset="0"
         id="stop144" />
      <stop
         style="stop-opacity:1;stop-color:#275e89"
         offset="0.28701"
         id="stop146" />
      <stop
         style="stop-opacity:1;stop-color:#142e43"
         offset="1"
         id="stop148" />
    </linearGradient>
    <clipPath
       clipPathUnits="userSpaceOnUse"
       id="clipPath160">
      <path
         d="m 2617.62,862.18 c 4.2,1.91 6.79,3.062 6.79,3.062 0,0 -2.47,-0.488 -6.79,-3.062 z"
         id="path158" />
    </clipPath>
    <linearGradient
       x1="0"
       y1="0"
       x2="1"
       y2="0"
       gradientUnits="userSpaceOnUse"
       gradientTransform="matrix(0,1244.38,1244.38,0,2621.01,616.066)"
       spreadMethod="pad"
       id="linearGradient168">
      <stop
         style="stop-opacity:1;stop-color:#275e89"
         offset="0"
         id="stop162" />
      <stop
         style="stop-opacity:1;stop-color:#275e89"
         offset="0.28701"
         id="stop164" />
      <stop
         style="stop-opacity:1;stop-color:#142e43"
         offset="1"
         id="stop166" />
    </linearGradient>
    <linearGradient
       x1="0"
       y1="0"
       x2="1"
       y2="0"
       gradientUnits="userSpaceOnUse"
       gradientTransform="matrix(0,1244.36,1244.36,0,2073.9,616.07)"
       spreadMethod="pad"
       id="linearGradient178">
      <stop
         style="stop-opacity:1;stop-color:#275e89"
         offset="0"
         id="stop172" />
      <stop
         style="stop-opacity:1;stop-color:#275e89"
         offset="0.28701"
         id="stop174" />
      <stop
         style="stop-opacity:1;stop-color:#142e43"
         offset="1"
         id="stop176" />
    </linearGradient>
    <linearGradient
       x1="0"
       y1="0"
       x2="1"
       y2="0"
       gradientUnits="userSpaceOnUse"
       gradientTransform="matrix(0,1244.36,1244.36,0,2073.57,616.069)"
       spreadMethod="pad"
       id="linearGradient188">
      <stop
         style="stop-opacity:1;stop-color:#275e89"
         offset="0"
         id="stop182" />
      <stop
         style="stop-opacity:1;stop-color:#275e89"
         offset="0.28701"
         id="stop184" />
      <stop
         style="stop-opacity:1;stop-color:#142e43"
         offset="1"
         id="stop186" />
    </linearGradient>
    <linearGradient
       x1="0"
       y1="0"
       x2="1"
       y2="0"
       gradientUnits="userSpaceOnUse"
       gradientTransform="matrix(0,823.467,823.467,0,2073.57,593.167)"
       spreadMethod="pad"
       id="linearGradient198">
      <stop
         style="stop-opacity:1;stop-color:#275e89"
         offset="0"
         id="stop192" />
      <stop
         style="stop-opacity:1;stop-color:#275e89"
         offset="0.28701"
         id="stop194" />
      <stop
         style="stop-opacity:1;stop-color:#142e43"
         offset="1"
         id="stop196" />
    </linearGradient>
  </defs>
  <sodipodi:namedview
     id="namedview4"
     pagecolor="#ffffff"
     bordercolor="#000000"
     borderopacity="0.25"
     inkscape:showpageshadow="2"
     inkscape:pageopacity="0.0"
     inkscape:pagecheckerboard="0"
     inkscape:deskcolor="#d1d1d1" />
  <g
     id="g8"
     inkscape:groupmode="layer"
     inkscape:label="ink_ext_XXXXXX"
     transform="matrix(1.3333333,0,0,-1.3333333,0,199.26667)">
    <g
       id="g10"
       transform="scale(0.1)">
      <path
         d="m 1653.2,0 c 0,0 -33.76,8.62109 -52.67,27.6016 l -127.55,171.4574 9.75,3.011 c 15.75,4.852 31.39,11.469 46.53,19.7 14.9,8.121 28.51,18.57 40.45,31.109 11.85,12.441 21.6,27.68 28.98,45.301 7.36,17.601 11.34,38.55 11.82,62.218 0.48,47.262 -11.35,83.032 -35.16,106.25 -24.41,23.821 -53.63,40.704 -86.85,50.215 -33.74,9.668 -68.27,14.676 -102.6,14.922 -35.14,0.254 -87.1,0.379 -105.86,0.379 H 1193.4 V 200.25 L 1289.22,0.0898438 V 447.121 l 126.63,-0.019 c 17.32,-1.051 31.63,-4.114 42.53,-9.09 11.17,-5.114 21.5,-13.793 30.7,-25.832 9.45,-12.379 14.23,-30.2 14.23,-52.969 0,-23.371 -5.07,-41.5 -15.11,-53.891 -9.69,-11.992 -20.5,-20.691 -32.13,-25.89 -11.45,-5.121 -26.58,-7.989 -45.19,-8.5 l -103.25,0.34 198.52,-271.1801562 h 11.98 L 1517.91,0 h 135.29"
         style="fill:#ffffff;fill-opacity:1;fill-rule:nonzero;stroke:none"
         id="path12" />
      <path
         d="m 2565.25,0 c 0,0 -37.26,9.37891 -55.52,30.1602 l -125.67,168.8988 9.76,3.011 c 15.75,4.852 31.4,11.469 46.53,19.7 14.91,8.121 28.51,18.57 40.45,31.109 11.84,12.441 21.6,27.68 28.98,45.301 7.36,17.601 11.34,38.55 11.82,62.218 0.47,47.262 -11.36,83.032 -35.17,106.25 -24.41,23.821 -53.63,40.704 -86.85,50.215 -33.73,9.668 -68.27,14.676 -102.59,14.922 -35.15,0.254 -87.11,0.379 -105.86,0.379 h -86.64 V 0.0898438 h 15.54 L 2119.81,0 h 135.29 c 0,0 -36.41,9.26953 -54.78,29.8086 V 447.121 l 126.62,-0.019 c 17.31,-1.051 31.63,-4.114 42.54,-9.09 11.17,-5.114 21.49,-13.793 30.68,-25.832 9.46,-12.379 14.25,-30.2 14.25,-52.969 0,-23.371 -5.1,-41.5 -15.12,-53.891 -9.69,-11.992 -20.5,-20.691 -32.14,-25.89 -11.43,-5.121 -26.57,-7.989 -45.18,-8.5 l -103.26,0.34 198.53,-271.1801562 h 12.93 L 2429.95,0 h 135.3"
         style="fill:#ffffff;fill-opacity:1;fill-rule:nonzero;stroke:none"
         id="path14" />
      <path
         d="m 2047.43,445.98 v 85.805 h -375.2 V 0.460938 h 18.11 81.58 53.71 c 0,0 -35.04,8.937502 -53.71,28.687462 V 204.27 h 245.7 l 3.44,-4.879 -55.45,115.597 c 0,0 1.7,-15.937 -8.07,-23.808 h -185.25 v 154.8 h 275.14"
         style="fill:#ffffff;fill-opacity:1;fill-rule:nonzero;stroke:none"
         id="path16" />
      <path
         d="M 1221.41,0.0898438 944.445,524.852 676.473,0.0898438 h 42.269 L 718.527,0 h 135.289 c 0,0 -36.859,9.37891 -55.136,30.1602 L 944.375,329.961 1088.75,29.9688 C 1070.42,9.32031 1033.81,0 1033.81,0 h 135.29 l -0.22,0.0898438 h 52.53"
         style="fill:#ffffff;fill-opacity:1;fill-rule:nonzero;stroke:none"
         id="path18" />
      <path
         d="M 2963.7,0.0898438 2686.77,524.852 2505.35,169.02 2568.87,82.7188 2686.68,329.961 2831.49,29.082 C 2812.91,9.08203 2777.4,0 2777.4,0 h 135.29 l -0.23,0.0898438 h 51.24"
         style="fill:#ffffff;fill-opacity:1;fill-rule:nonzero;stroke:none"
         id="path20" />
      <path
         d="m 3317.61,524.742 -160.2,-299.773 -161.27,299.676 -113.02,-203.106 49.35,-118.16 55.22,119 L 3154.75,8.58984 3322.12,323.398 3462.4,29.8984 C 3443.92,9.62891 3407.97,0.460938 3407.97,0.460938 h 68.51 66.77 50.35 L 3317.61,524.742"
         style="fill:#ffffff;fill-opacity:1;fill-rule:nonzero;stroke:none"
         id="path22" />
      <path
         d="M 811.762,531.785 H 676.473 c 0,0 36.441,-9.289 54.8,-29.816 L 595.047,210.961 428.727,523.66 261.727,209.969 122.387,501.93 c 18.367,20.558 54.851,29.855 54.851,29.855 H 108.141 41.9492 -0.00390625 L 274.887,9.37891 426.078,308.02 586.609,9.48047 854.949,531.785 h -43.187"
         style="fill:#ffffff;fill-opacity:1;fill-rule:nonzero;stroke:none"
         id="path24" />
      <path
         d="m 4040.17,447.859 v 84.676 h -453.85 c 0,0 30.1,-7.695 49.38,-24.531 V 0.460938 h 404.47 V 82.8789 H 3739.13 V 223.781 h 190.81 c 9.02,-8.043 7.45,-23.242 7.45,-23.242 l 54.27,111.531 -2.9,-4 h -251.49 v 139.789 h 302.9"
         style="fill:#ffffff;fill-opacity:1;fill-rule:nonzero;stroke:none"
         id="path26" />
      <g
         id="g28">
        <g
           id="g30"
           clip-path="url(#clipPath34)">
          <path
             d="m 1587.65,637.828 c -59.75,67.223 -115.18,244.86 -115.18,244.86 v 0 c 0,0 64.28,42.437 134.18,73.386 -9.52,28.172 -14.97,54.306 -19,76.136 -21.39,-14.17 -55.46,-30.38 -75.11,-40.116 -124.93,-61.992 -190.69,-32.055 -190.69,-32.055 0,0 5.83,-2.867 15.28,-7.547 22.7,-13.711 65.53,-54.078 97.89,-132.719 l 91.77,-194.609 c 0.37,-0.371 0.79,-0.703 1.16,-1.074 l 110.22,-22.649 c -19.97,9.934 -37.33,21.887 -50.52,36.387"
             style="fill:url(#linearGradient42);fill-opacity:1;fill-rule:nonzero;stroke:none"
             id="path44" />
        </g>
      </g>
      <g
         id="g46">
        <g
           id="g48"
           clip-path="url(#clipPath52)">
          <path
             d="m 1336.59,952.82 c -9.14,4.496 -14.74,7.219 -14.74,7.219 0,0 5.9,-1.965 14.74,-7.219"
             style="fill:url(#linearGradient60);fill-opacity:1;fill-rule:nonzero;stroke:none"
             id="path62" />
        </g>
      </g>
      <g
         id="g64">
        <g
           id="g66"
           clip-path="url(#clipPath70)">
          <path
             d="m 1687.49,683.66 c -34.42,38.715 -76.2,139.61 -76.2,139.61 0,0 19.21,11.375 46.72,24.832 -9.46,11.945 -18.15,23.906 -25.91,35.742 -70.17,-33.957 -106.75,-18.602 -106.75,-18.602 0,0 2.73,-1.25 7.12,-3.262 10.39,-6.285 31.22,-24.609 55.82,-77.417 l 49.88,-103.442 c 0.88,-0.891 1.82,-1.738 2.72,-2.598 l 71.09,-16.289 c -9.15,6.551 -17.45,13.68 -24.49,21.426"
             style="fill:url(#linearGradient78);fill-opacity:1;fill-rule:nonzero;stroke:none"
             id="path80" />
        </g>
      </g>
      <g
         id="g82">
        <g
           id="g84"
           clip-path="url(#clipPath88)">
          <path
             d="m 1532.15,862.18 c -4.21,1.91 -6.8,3.062 -6.8,3.062 0,0 2.48,-0.488 6.8,-3.062"
             style="fill:url(#linearGradient96);fill-opacity:1;fill-rule:nonzero;stroke:none"
             id="path98" />
        </g>
      </g>
      <g
         id="g100">
        <g
           id="g102"
           clip-path="url(#clipPath106)">
          <path
             d="m 2827.92,960.039 c 0,0 -65.77,-29.937 -190.69,32.055 -19.65,9.736 -53.73,25.946 -75.12,40.116 -4.02,-21.83 -9.48,-47.964 -18.99,-76.136 69.9,-30.949 134.17,-73.386 134.17,-73.386 v 0 c 0,0 -55.42,-177.637 -115.18,-244.86 -13.19,-14.5 -30.54,-26.453 -50.52,-36.387 l 110.23,22.649 c 0.37,0.371 0.78,0.703 1.15,1.074 l 91.77,194.609 c 32.36,78.641 75.19,119.008 97.9,132.719 9.44,4.68 15.28,7.547 15.28,7.547"
             style="fill:url(#linearGradient114);fill-opacity:1;fill-rule:nonzero;stroke:none"
             id="path116" />
        </g>
      </g>
      <g
         id="g118">
        <g
           id="g120"
           clip-path="url(#clipPath124)">
          <path
             d="m 2813.18,952.82 c 9.13,4.496 14.74,7.219 14.74,7.219 0,0 -5.91,-1.965 -14.74,-7.219"
             style="fill:url(#linearGradient132);fill-opacity:1;fill-rule:nonzero;stroke:none"
             id="path134" />
        </g>
      </g>
      <g
         id="g136">
        <g
           id="g138"
           clip-path="url(#clipPath142)">
          <path
             d="m 2624.41,865.242 c 0,0 -36.58,-15.355 -106.74,18.602 -7.76,-11.836 -16.46,-23.797 -25.91,-35.742 27.51,-13.457 46.72,-24.832 46.72,-24.832 0,0 -41.79,-100.895 -76.21,-139.61 -7.04,-7.746 -15.34,-14.875 -24.48,-21.426 l 71.08,16.289 c 0.91,0.86 1.84,1.707 2.72,2.598 l 49.88,103.442 c 24.61,52.808 45.43,71.132 55.83,77.417 4.38,2.012 7.11,3.262 7.11,3.262"
             style="fill:url(#linearGradient150);fill-opacity:1;fill-rule:nonzero;stroke:none"
             id="path152" />
        </g>
      </g>
      <g
         id="g154">
        <g
           id="g156"
           clip-path="url(#clipPath160)">
          <path
             d="m 2617.62,862.18 c 4.2,1.91 6.79,3.062 6.79,3.062 0,0 -2.47,-0.488 -6.79,-3.062"
             style="fill:url(#linearGradient168);fill-opacity:1;fill-rule:nonzero;stroke:none"
             id="path170" />
        </g>
      </g>
      <path
         d="m 2499.73,1141.9 c 0,0 -416.41,207.45 -425.81,352.58 0,-0.22 -0.01,-0.48 -0.02,-0.7 -0.01,0.22 -0.02,0.48 -0.02,0.7 -9.4,-145.13 -425.81,-352.58 -425.81,-352.58 0,0 -50.15,-226.771 140.2,-409.806 l 4.93,2.219 c -102.9,110.503 -131,233.66 -49.87,317.487 l 330.55,195.49 c 0,0 0,0.66 0.02,1.76 0.02,-1.1 0.02,-1.75 0.02,-1.75 l 330.55,-195.49 c 81.13,-83.837 53.02,-206.994 -49.89,-317.478 l 4.94,-2.234 c 190.35,183.031 140.21,409.802 140.21,409.802"
         style="fill:url(#linearGradient178);fill-opacity:1;fill-rule:evenodd;stroke:none"
         id="path180" />
      <path
         d="m 2352.75,951.902 c 0,0 -269.56,134.328 -279.01,229.418 -0.03,0.61 -0.05,1.25 -0.08,1.83 0,-0.22 -0.07,-0.45 -0.09,-0.67 -0.01,0.22 -0.08,0.45 -0.1,0.67 -0.02,-0.58 -0.05,-1.22 -0.07,-1.83 -9.43,-95.08 -279,-229.418 -279,-229.418 0,0 -32.88,-146.148 91.96,-266.211 l 3.23,1.473 c -67.5,72.477 -85.93,153.254 -32.72,208.238 0,0 214.66,126.948 216.7,128.158 l 216.7,-128.158 c 53.2,-54.984 34.78,-135.761 -32.72,-208.238 l 3.24,-1.473 c 124.85,120.063 91.96,266.211 91.96,266.211"
         style="fill:url(#linearGradient188);fill-opacity:1;fill-rule:evenodd;stroke:none"
         id="path190" />
      <path
         d="m 2258.32,815.41 c 0,0 -178.39,88.891 -184.63,151.824 -0.03,0.395 -0.03,0.825 -0.05,1.2 0,-0.145 -0.06,-0.286 -0.07,-0.438 -0.01,0.152 -0.06,0.293 -0.06,0.438 -0.01,-0.375 -0.03,-0.805 -0.05,-1.2 -6.24,-62.929 -184.63,-151.824 -184.63,-151.824 0,0 -21.77,-96.722 60.86,-176.164 l 2.13,0.965 c -44.66,47.961 -56.87,101.422 -21.65,137.809 0,0 142.05,84.007 143.4,84.808 l 143.4,-84.808 c 35.21,-36.387 23.02,-89.848 -21.65,-137.797 l 2.15,-0.977 c 82.61,79.442 60.85,176.164 60.85,176.164"
         style="fill:url(#linearGradient198);fill-opacity:1;fill-rule:evenodd;stroke:none"
         id="path200" />
    </g>
  </g>
</svg>
